<mxfile host="app.diagrams.net" agent="Mozilla/5.0 (Windows NT 10.0; Win64; x64) AppleWebKit/537.36 (KHTML, like Gecko) Chrome/135.0.0.0 Safari/537.36" version="26.2.9">
  <diagram id="ANInNhaM4nHCrN30l9Ne" name="Halaman-1">
    <mxGraphModel dx="7020" dy="4885" grid="1" gridSize="75" guides="1" tooltips="1" connect="1" arrows="1" fold="1" page="1" pageScale="1" pageWidth="900" pageHeight="1125" background="#000000" math="0" shadow="0">
      <root>
        <mxCell id="0" />
        <mxCell id="1" parent="0" />
        <mxCell id="ce1c8138-5491-43cc-a73e-2f45b35e042b" value="lks-SG-NAT-Oregon" style="rounded=1;arcSize=10;dashed=1;strokeColor=#ff0000;fillColor=none;gradientColor=none;dashPattern=8 4;strokeWidth=2;labelBackgroundColor=none;fontSize=23;fontColor=#ffffff;verticalAlign=bottom;" parent="1" vertex="1">
          <mxGeometry x="975" y="356.25" width="300" height="300" as="geometry" />
        </mxCell>
        <mxCell id="5531ff30-1325-48dc-81d6-348e3f6a6353" value="lks-SG-LLMWorkers" style="rounded=1;arcSize=10;dashed=1;strokeColor=#ff0000;fillColor=none;gradientColor=none;dashPattern=8 4;strokeWidth=2;labelBackgroundColor=none;fontSize=23;fontColor=#ffffff;verticalAlign=bottom;" parent="1" vertex="1">
          <mxGeometry x="1987.5" y="356.25" width="543.75" height="300" as="geometry" />
        </mxCell>
        <mxCell id="1215c710-ba2b-41b2-8440-6cf7dc3d98f7" value="lks-SG-EFS" style="rounded=1;arcSize=10;dashed=1;strokeColor=#ff0000;fillColor=none;gradientColor=none;dashPattern=8 4;strokeWidth=2;labelBackgroundColor=none;fontSize=23;fontColor=#ffffff;verticalAlign=bottom;" parent="1" vertex="1">
          <mxGeometry x="1593.75" y="356.25" width="300" height="300" as="geometry" />
        </mxCell>
        <mxCell id="aadb9c3d-7ea8-454c-a540-94ad8b32b310" value="lks-SG-NAT-Oregon-2" style="rounded=1;arcSize=10;dashed=1;strokeColor=#ff0000;fillColor=none;gradientColor=none;dashPattern=8 4;strokeWidth=2;labelBackgroundColor=none;fontSize=23;fontColor=#ffffff;verticalAlign=bottom;" parent="1" vertex="1">
          <mxGeometry x="-768.75" y="-281.25" width="300" height="300" as="geometry" />
        </mxCell>
        <mxCell id="396b9705-f6d2-4df4-8168-1c5dc0340d38" value="lks-SG-EFS-2" style="rounded=1;arcSize=10;dashed=1;strokeColor=#ff0000;fillColor=none;gradientColor=none;dashPattern=8 4;strokeWidth=2;labelBackgroundColor=none;fontSize=23;fontColor=#ffffff;verticalAlign=bottom;" parent="1" vertex="1">
          <mxGeometry x="-768.75" y="618.75" width="300" height="300" as="geometry" />
        </mxCell>
        <mxCell id="cfe759ac-a5eb-44a2-ae01-219a9593aa83" value="lks-SG-LLMWorkers-2" style="rounded=1;arcSize=10;dashed=1;strokeColor=#ff0000;fillColor=none;gradientColor=none;dashPattern=8 4;strokeWidth=2;labelBackgroundColor=none;fontSize=23;fontColor=#ffffff;verticalAlign=bottom;" parent="1" vertex="1">
          <mxGeometry x="-375" y="618.75" width="543.75" height="300" as="geometry" />
        </mxCell>
        <mxCell id="84e9b571-a905-4caa-b1eb-04b4c39f1c7e" value="lks-SG-RDS" style="rounded=1;arcSize=10;dashed=1;strokeColor=#ff0000;fillColor=none;gradientColor=none;dashPattern=8 4;strokeWidth=2;labelBackgroundColor=none;fontSize=23;fontColor=#ffffff;verticalAlign=bottom;" parent="1" vertex="1">
          <mxGeometry x="243.75" width="300" height="300" as="geometry" />
        </mxCell>
        <mxCell id="dc1b2f44-8620-4dca-8b33-3e5b47eeea17" value="lks-VPC-Oregon" style="rounded=1;arcSize=10;dashed=0;strokeColor=#ffffff;fillColor=none;gradientColor=none;strokeWidth=2;labelBackgroundColor=none;fontSize=23;fontColor=#ffffff;verticalAlign=top;" parent="1" vertex="1">
          <mxGeometry x="787.5" y="168.75" width="1931.25" height="675" as="geometry" />
        </mxCell>
        <mxCell id="dc1b2f44-8620-4dca-8b33-3e5b47eeea17-badge" value="" style="html=1;shape=mxgraph.aws3.virtual_private_cloud;fillColor=#F58536;" parent="1" vertex="1">
          <mxGeometry x="807.5" y="148.75" width="52" height="36" as="geometry" />
        </mxCell>
        <mxCell id="6ef6c78c-7638-499e-ac13-7a2afa29f925" value="lks-VPC-Virginia-1" style="rounded=1;arcSize=10;dashed=0;strokeColor=#ffffff;fillColor=none;gradientColor=none;strokeWidth=2;labelBackgroundColor=none;fontSize=23;fontColor=#ffffff;verticalAlign=top;" parent="1" vertex="1">
          <mxGeometry x="-956.25" y="-1393.4999999999998" width="3981.7500000000005" height="2499.75" as="geometry" />
        </mxCell>
        <mxCell id="6ef6c78c-7638-499e-ac13-7a2afa29f925-badge" value="" style="html=1;shape=mxgraph.aws3.virtual_private_cloud;fillColor=#F58536;" parent="1" vertex="1">
          <mxGeometry x="-936.25" y="-1413.4999999999998" width="52" height="36" as="geometry" />
        </mxCell>
        <mxCell id="e1d5efaf-2333-4a67-a325-c85991e12f77" value="lks-Private-Subnet" style="rounded=1;arcSize=10;dashed=0;strokeColor=#ffffff;fillColor=none;gradientColor=none;strokeWidth=2;labelBackgroundColor=none;fontSize=23;fontColor=#ffffff;verticalAlign=bottom;" parent="1" vertex="1">
          <mxGeometry x="1481.25" y="243.75" width="1162.5" height="525" as="geometry" />
        </mxCell>
        <mxCell id="e1d5efaf-2333-4a67-a325-c85991e12f77-badge" value="" style="html=1;shape=mxgraph.aws3.permissions;fillColor=#F58536;" parent="1" vertex="1">
          <mxGeometry x="1501.25" y="223.75" width="30" height="35" as="geometry" />
        </mxCell>
        <mxCell id="23568e7f-057c-4d3c-ace4-d759ca6f0489" value="lks-Public-Subnet" style="rounded=1;arcSize=10;dashed=0;strokeColor=#ffffff;fillColor=none;gradientColor=none;strokeWidth=2;labelBackgroundColor=none;fontSize=23;fontColor=#ffffff;verticalAlign=bottom;" parent="1" vertex="1">
          <mxGeometry x="862.5" y="243.75" width="525" height="525" as="geometry" />
        </mxCell>
        <mxCell id="23568e7f-057c-4d3c-ace4-d759ca6f0489-badge" value="" style="html=1;shape=mxgraph.aws3.permissions;fillColor=#F58536;" parent="1" vertex="1">
          <mxGeometry x="882.5" y="223.75" width="30" height="35" as="geometry" />
        </mxCell>
        <mxCell id="635b8e0d-476c-448f-8568-3a8fe452eafd" value="lks-Private-Subnet-2" style="rounded=1;arcSize=10;dashed=0;strokeColor=#ffffff;fillColor=none;gradientColor=none;strokeWidth=2;labelBackgroundColor=none;fontSize=23;fontColor=#ffffff;verticalAlign=bottom;" parent="1" vertex="1">
          <mxGeometry x="-881.25" y="506.25" width="1162.5" height="525" as="geometry" />
        </mxCell>
        <mxCell id="635b8e0d-476c-448f-8568-3a8fe452eafd-badge" value="" style="html=1;shape=mxgraph.aws3.permissions;fillColor=#F58536;" parent="1" vertex="1">
          <mxGeometry x="-861.25" y="486.25" width="30" height="35" as="geometry" />
        </mxCell>
        <mxCell id="53ce06c1-7c38-452f-8b6b-b4b6464db460" value="lks-Public-Subnet-2" style="rounded=1;arcSize=10;dashed=0;strokeColor=#ffffff;fillColor=none;gradientColor=none;strokeWidth=2;labelBackgroundColor=none;fontSize=23;fontColor=#ffffff;verticalAlign=bottom;" parent="1" vertex="1">
          <mxGeometry x="-881.25" y="-393.75" width="525" height="525" as="geometry" />
        </mxCell>
        <mxCell id="53ce06c1-7c38-452f-8b6b-b4b6464db460-badge" value="" style="html=1;shape=mxgraph.aws3.permissions;fillColor=#F58536;" parent="1" vertex="1">
          <mxGeometry x="-861.25" y="-413.75" width="30" height="35" as="geometry" />
        </mxCell>
        <mxCell id="958ded87-0e9c-43a3-aa08-5ebcf2c6cd4e-d3801162-fb3f-426b-b9a0-f475a82bf55b" value="" style="startArrow=none;endArrow=classic;dashed=0;strokeColor=#ffffff;strokeWidth=2;}" parent="1" source="958ded87-0e9c-43a3-aa08-5ebcf2c6cd4e" target="d3801162-fb3f-426b-b9a0-f475a82bf55b" edge="1">
          <mxGeometry width="50" height="50" relative="1" as="geometry" />
        </mxCell>
        <mxCell id="216732ef-bf17-4dcb-ab15-bfbb91b29a7f-a8f69557-bcd8-42c7-9245-11f20696b5b5" value="" style="startArrow=none;endArrow=classic;dashed=0;strokeColor=#ffffff;strokeWidth=4;}" parent="1" source="216732ef-bf17-4dcb-ab15-bfbb91b29a7f" target="a8f69557-bcd8-42c7-9245-11f20696b5b5" edge="1">
          <mxGeometry width="50" height="50" relative="1" as="geometry" />
        </mxCell>
        <mxCell id="2d7754e9-a369-4473-bbbe-f83add6801f0-ca8e3777-c303-4e2a-8756-4e1261ac2a81" value="" style="startArrow=classic;endArrow=classic;dashed=0;strokeColor=#ffffff;strokeWidth=2;}" parent="1" source="2d7754e9-a369-4473-bbbe-f83add6801f0" target="ca8e3777-c303-4e2a-8756-4e1261ac2a81" edge="1">
          <mxGeometry width="50" height="50" relative="1" as="geometry" />
        </mxCell>
        <mxCell id="958ded87-0e9c-43a3-aa08-5ebcf2c6cd4e-14ad0d35-261f-4a47-a09d-92bff3094921" value="" style="startArrow=classic;endArrow=none;dashed=0;strokeColor=#ffffff;strokeWidth=2;}" parent="1" source="958ded87-0e9c-43a3-aa08-5ebcf2c6cd4e" target="14ad0d35-261f-4a47-a09d-92bff3094921" edge="1">
          <mxGeometry width="50" height="50" relative="1" as="geometry" />
        </mxCell>
        <mxCell id="216732ef-bf17-4dcb-ab15-bfbb91b29a7f-858ace34-faa1-45c7-a04f-bbba31f109bd" value="" style="startArrow=classic;endArrow=classic;dashed=0;strokeColor=#ffffff;strokeWidth=4;}" parent="1" source="216732ef-bf17-4dcb-ab15-bfbb91b29a7f" target="858ace34-faa1-45c7-a04f-bbba31f109bd" edge="1">
          <mxGeometry width="50" height="50" relative="1" as="geometry" />
        </mxCell>
        <mxCell id="fea57c93-41ac-4abd-b08b-7932b780006c-c85116d7-58e5-47df-8641-5d25a3512a54" value="" style="startArrow=none;endArrow=classic;dashed=0;strokeColor=#ffffff;strokeWidth=4;}" parent="1" source="fea57c93-41ac-4abd-b08b-7932b780006c" target="c85116d7-58e5-47df-8641-5d25a3512a54" edge="1">
          <mxGeometry width="50" height="50" relative="1" as="geometry" />
        </mxCell>
        <mxCell id="2d7754e9-a369-4473-bbbe-f83add6801f0-333d6b63-9f3f-46cd-9b36-daf3c68fe77b" value="" style="startArrow=none;endArrow=classic;dashed=0;strokeColor=#ffffff;strokeWidth=2;}" parent="1" source="2d7754e9-a369-4473-bbbe-f83add6801f0" target="333d6b63-9f3f-46cd-9b36-daf3c68fe77b" edge="1">
          <mxGeometry width="50" height="50" relative="1" as="geometry" />
        </mxCell>
        <mxCell id="a8f69557-bcd8-42c7-9245-11f20696b5b5-858ace34-faa1-45c7-a04f-bbba31f109bd" value="" style="startArrow=classic;endArrow=classic;dashed=0;strokeColor=#ffffff;strokeWidth=4;}" parent="1" source="a8f69557-bcd8-42c7-9245-11f20696b5b5" target="858ace34-faa1-45c7-a04f-bbba31f109bd" edge="1">
          <mxGeometry width="50" height="50" relative="1" as="geometry" />
        </mxCell>
        <mxCell id="83adb1d4-4e7a-44d4-b20e-e215947dcb2a-216732ef-bf17-4dcb-ab15-bfbb91b29a7f" value="" style="startArrow=none;endArrow=classic;dashed=0;strokeColor=#ffffff;strokeWidth=4;}" parent="1" source="83adb1d4-4e7a-44d4-b20e-e215947dcb2a" target="216732ef-bf17-4dcb-ab15-bfbb91b29a7f" edge="1">
          <mxGeometry width="50" height="50" relative="1" as="geometry" />
        </mxCell>
        <mxCell id="a8f69557-bcd8-42c7-9245-11f20696b5b5-fea57c93-41ac-4abd-b08b-7932b780006c" value="" style="startArrow=none;endArrow=classic;dashed=0;strokeColor=#ffffff;strokeWidth=4;}" parent="1" source="a8f69557-bcd8-42c7-9245-11f20696b5b5" target="fea57c93-41ac-4abd-b08b-7932b780006c" edge="1">
          <mxGeometry width="50" height="50" relative="1" as="geometry" />
        </mxCell>
        <mxCell id="ca8e3777-c303-4e2a-8756-4e1261ac2a81" value="T2" style="shape=mxgraph.aws3.instance;fillColor=#F58534;fontColor=#FFFFFF;fontSize=15;" parent="1" vertex="1">
          <mxGeometry x="-648.75" y="-162.75" width="60" height="63" as="geometry" />
        </mxCell>
        <mxCell id="c85116d7-58e5-47df-8641-5d25a3512a54" value="" style="shape=mxgraph.aws3.rds_db_instance;fillColor=#2E73B8;" parent="1" vertex="1">
          <mxGeometry x="369" y="117" width="49.5" height="66" as="geometry" />
        </mxCell>
        <mxCell id="14ad0d35-261f-4a47-a09d-92bff3094921" value="T2" style="shape=mxgraph.aws3.instance;fillColor=#F58534;fontColor=#FFFFFF;fontSize=15;" parent="1" vertex="1">
          <mxGeometry x="1095" y="474.75" width="60" height="63" as="geometry" />
        </mxCell>
        <mxCell id="958ded87-0e9c-43a3-aa08-5ebcf2c6cd4e" value="" style="shape=mxgraph.aws3.efs;fillColor=#E05243;" parent="1" vertex="1">
          <mxGeometry x="1705.5" y="459.75" width="76.5" height="93" as="geometry" />
        </mxCell>
        <mxCell id="d3801162-fb3f-426b-b9a0-f475a82bf55b" value="T2" style="shape=mxgraph.aws3.instance;fillColor=#F58534;fontColor=#FFFFFF;fontSize=15;" parent="1" vertex="1">
          <mxGeometry x="2107.5" y="474.75" width="60" height="63" as="geometry" />
        </mxCell>
        <mxCell id="a1593060-3d82-412d-82c1-377873be11b1" value="T2" style="shape=mxgraph.aws3.instance;fillColor=#F58534;fontColor=#FFFFFF;fontSize=15;" parent="1" vertex="1">
          <mxGeometry x="2220" y="474.75" width="60" height="63" as="geometry" />
        </mxCell>
        <mxCell id="d2a0b7eb-c47d-474f-822c-ed4a6b1dc3a0" value="T2" style="shape=mxgraph.aws3.instance;fillColor=#F58534;fontColor=#FFFFFF;fontSize=15;" parent="1" vertex="1">
          <mxGeometry x="2351.25" y="474.75" width="60" height="63" as="geometry" />
        </mxCell>
        <mxCell id="2d7754e9-a369-4473-bbbe-f83add6801f0" value="" style="shape=mxgraph.aws3.efs;fillColor=#E05243;" parent="1" vertex="1">
          <mxGeometry x="-657" y="722.25" width="76.5" height="93" as="geometry" />
        </mxCell>
        <mxCell id="333d6b63-9f3f-46cd-9b36-daf3c68fe77b" value="T2" style="shape=mxgraph.aws3.instance;fillColor=#F58534;fontColor=#FFFFFF;fontSize=15;" parent="1" vertex="1">
          <mxGeometry x="-255" y="737.25" width="60" height="63" as="geometry" />
        </mxCell>
        <mxCell id="4aeb2189-e62d-466b-b8b6-338051a843a4" value="T2" style="shape=mxgraph.aws3.instance;fillColor=#F58534;fontColor=#FFFFFF;fontSize=15;" parent="1" vertex="1">
          <mxGeometry x="-142.5" y="737.25" width="60" height="63" as="geometry" />
        </mxCell>
        <mxCell id="a10b178f-8028-48a0-bba6-5628ba50fb76" value="T2" style="shape=mxgraph.aws3.instance;fillColor=#F58534;fontColor=#FFFFFF;fontSize=15;" parent="1" vertex="1">
          <mxGeometry x="-11.250000000000002" y="737.25" width="60" height="63" as="geometry" />
        </mxCell>
        <mxCell id="83adb1d4-4e7a-44d4-b20e-e215947dcb2a" value="" style="shape=image;imageAspect=0;aspect=fixed;image=data:image/svg+xml,PHN2ZyB4bWxucz0iaHR0cDovL3d3dy53My5vcmcvMjAwMC9zdmciIHdpZHRoPSI0NiIgaGVpZ2h0PSI0NiIgc3R5bGU9ImZpbGw6ICMwMDAwMDA7Ij48Y2lyY2xlIGN4PSIyMyIgY3k9IjIzIiByPSIyMyIgc3R5bGU9ImZpbGw6ICNmZmZmZmY7Ii8+PGcgdHJhbnNmb3JtPSJ0cmFuc2xhdGUoMTEuNSw3KSI+PHN2ZyB4bWxucz0iaHR0cDovL3d3dy53My5vcmcvMjAwMC9zdmciIHdpZHRoPSIyMyIgaGVpZ2h0PSIzMiIgdmlld0JveD0iMCAwIDIzIDMyIj48cGF0aCBkPSJNMjIuODU3IDI0Ljk4MmMwIDIuNjA3LTEuNzE0IDQuNzMyLTMuODA0IDQuNzMySDMuODAzYy0yLjA4OSAwLTMuODA0LTIuMTI1LTMuODA0LTQuNzMyIDAtNC42OTYgMS4xNjEtMTAuMTI1IDUuODM5LTEwLjEyNWE3Ljk3MiA3Ljk3MiAwIDAgMCAxMS4xNzggMGM0LjY3OSAwIDUuODM5IDUuNDI5IDUuODM5IDEwLjEyNXpNMTguMjg2IDkuMTQzYzAgMy43ODYtMy4wNzEgNi44NTctNi44NTcgNi44NTdzLTYuODU3LTMuMDcxLTYuODU3LTYuODU3IDMuMDcxLTYuODU3IDYuODU3LTYuODU3IDYuODU3IDMuMDcxIDYuODU3IDYuODU3eiIvPjwvc3ZnPjwvZz48L3N2Zz4=;direction=east;" parent="1" vertex="1">
          <mxGeometry x="34.02471392441535" y="-1109.7252860755846" width="156.9505721511693" height="156.9505721511693" as="geometry" />
        </mxCell>
        <mxCell id="216732ef-bf17-4dcb-ab15-bfbb91b29a7f" value="" style="shape=image;imageAspect=0;aspect=fixed;image=data:image/svg+xml,PHN2ZyB4bWxucz0iaHR0cDovL3d3dy53My5vcmcvMjAwMC9zdmciIHdpZHRoPSI3OCIgaGVpZ2h0PSI3OCIgc3R5bGU9ImZpbGw6IG51bGw7Ij48Y2lyY2xlIGN4PSIzOSIgY3k9IjM5IiByPSIzOSIgc3R5bGU9ImZpbGw6IHJnYmEoMCwgMCwgMCwgMCk7Ii8+PGcgdHJhbnNmb3JtPSJ0cmFuc2xhdGUoNyw3KSI+PHN2ZyB4bWxucz0iaHR0cDovL3d3dy53My5vcmcvMjAwMC9zdmciIHdpZHRoPSI2NCIgaGVpZ2h0PSI2NCIgdmlld0JveD0iMCAwIDY0IDY0Ij48ZGVmcz48bGluZWFyR3JhZGllbnQgaWQ9IkFtcGxpZnlfc3ZnX19hIiB4MT0iMCUiIHgyPSIxMDAlIiB5MT0iMTAwJSIgeTI9IjAlIj48c3RvcCBvZmZzZXQ9IjAlIiBzdG9wLWNvbG9yPSIjQkQwODE2Ii8+PHN0b3Agb2Zmc2V0PSIxMDAlIiBzdG9wLWNvbG9yPSIjRkY1MjUyIi8+PC9saW5lYXJHcmFkaWVudD48L2RlZnM+PGcgZmlsbD0ibm9uZSIgZmlsbC1ydWxlPSJldmVub2RkIj48ZyBmaWxsPSJ1cmwoI0FtcGxpZnlfc3ZnX19hKSI+PHBhdGggZD0iTTAgMGg2NHY2NEgweiIvPjwvZz48cGF0aCBmaWxsPSIjRkZGIiBkPSJNNDYuNjM3IDQ3LjY3NyAzMi4zMzMgMTdoMy43OTRMNTAuNDMgNDcuNjc3aC0zLjc5NFptNi4yNy41NzhMMzcuNjcgMTUuNTc3YS45OTkuOTk5IDAgMCAwLS45MDYtLjU3N2gtNmExIDEgMCAwIDAtLjkwNiAxLjQyMmwxNS4yMzYgMzIuNjc3YTEgMSAwIDAgMCAuOTA2LjU3OGg2YTEgMSAwIDAgMCAuOTA3LTEuNDIyWm0tMTYuMjc3LS41NzgtMTAuNTM2LTIyLjAzIDIuMzI1LTMuODQ2IDEyLjAxNSAyNS44NzZIMzYuNjNabS03LjE4Ny0yOC40MjJhMS4wMDUgMS4wMDUgMCAwIDAtLjg1My0uNTc4Ljk2Ljk2IDAgMCAwLS45MS40ODFsLTMuNTc2IDUuOTE1YS45OTkuOTk5IDAgMCAwLS4wNDcuOTVsMTEuMDQgMjMuMDg2Yy4xNjcuMzQ3LjUxOS41NjguOTAzLjU2OGg2YTEgMSAwIDAgMCAuOTA4LTEuNDIxTDI5LjQ0MyAxOS4yNTVabS0xNi42NyAyOC40MjIgOS42MzktMTUuOTQgMS42MTkgMy4yMzYtNC43ODIgOC4xMDJhMSAxIDAgMCAwIC44NjIgMS41MDhoOC43MDRsMS41NiAzLjA5NEgxMi43NzRabTE3LjU1LTQuNTQ0YTEgMSAwIDAgMC0uODkzLS41NWgtNy41NjhsNC4xNjgtNy4wNjJjLjE3LS4yOTIuMTg0LS42NTIuMDMzLS45NTVsLTIuNjczLTUuMzQ3YTEgMSAwIDAgMC0uODU1LS41NTIuOTg2Ljk4NiAwIDAgMC0uODk1LjQ4MmwtMTEuNDk1IDE5LjAxQTEgMSAwIDAgMCAxMSA0OS42NzdoMjFhMSAxIDAgMCAwIC44OTMtMS40NTFsLTIuNTctNS4wOTNaIi8+PC9nPjwvc3ZnPjwvZz48L3N2Zz4=;direction=east;" parent="1" vertex="1">
          <mxGeometry x="695.4958430484426" y="-1085.7541569515574" width="109.00831390311475" height="109.00831390311475" as="geometry" />
        </mxCell>
        <mxCell id="858ace34-faa1-45c7-a04f-bbba31f109bd" value="" style="shape=image;imageAspect=0;aspect=fixed;image=data:image/svg+xml,PHN2ZyB4bWxucz0iaHR0cDovL3d3dy53My5vcmcvMjAwMC9zdmciIHdpZHRoPSI3OCIgaGVpZ2h0PSI3OCIgc3R5bGU9ImZpbGw6IG51bGw7Ij48Y2lyY2xlIGN4PSIzOSIgY3k9IjM5IiByPSIzOSIgc3R5bGU9ImZpbGw6IHJnYmEoMCwgMCwgMCwgMCk7Ii8+PGcgdHJhbnNmb3JtPSJ0cmFuc2xhdGUoNyw3KSI+PHN2ZyB4bWxucz0iaHR0cDovL3d3dy53My5vcmcvMjAwMC9zdmciIHdpZHRoPSI2NCIgaGVpZ2h0PSI2NCIgdmlld0JveD0iMCAwIDY0IDY0Ij48ZGVmcz48bGluZWFyR3JhZGllbnQgaWQ9IkNvZ25pdG9fc3ZnX19hIiB4MT0iMCUiIHgyPSIxMDAlIiB5MT0iMTAwJSIgeTI9IjAlIj48c3RvcCBvZmZzZXQ9IjAlIiBzdG9wLWNvbG9yPSIjQkQwODE2Ii8+PHN0b3Agb2Zmc2V0PSIxMDAlIiBzdG9wLWNvbG9yPSIjRkY1MjUyIi8+PC9saW5lYXJHcmFkaWVudD48L2RlZnM+PGcgZmlsbD0ibm9uZSIgZmlsbC1ydWxlPSJldmVub2RkIj48ZyBmaWxsPSJ1cmwoI0NvZ25pdG9fc3ZnX19hKSI+PHBhdGggZD0iTTAgMGg2NHY2NEgweiIvPjwvZz48cGF0aCBmaWxsPSIjRkZGIiBkPSJNNDguMzg1IDIxLjAwNnYtNS4zMDNjMC0uOTIyLS42MTgtMS43MDItMS4zNS0xLjcwMkgxMy4zN2MtLjczMyAwLTEuMzUuNzgtMS4zNSAxLjcwMnY1LjMwM2gxNS4xNTF2LTQuMDAyYzAtLjU1My40NTItMS4wMDEgMS4wMS0xLjAwMWgxNy4xNzNjLjU1OCAwIDEuMDEuNDQ4IDEuMDEgMXY0LjAwM2gyLjAyWm0tNC4wNC0zLjAwMkgyOS4xOTN2MTIuMzg0YTguNjA4IDguNjA4IDAgMCAxIDQuNTMzLTMuOTg1IDQuNDIzIDQuNDIzIDAgMCAxLS45NTQtMi43MzdjMC0yLjQ2NyAyLjAzOS00LjQ3NCA0LjU0Ni00LjQ3NCAyLjUwNiAwIDQuNTQ2IDIuMDA3IDQuNTQ2IDQuNDc0YTQuNDE1IDQuNDE1IDAgMCAxLTEuMDggMi44OCA4LjcyNiA4LjcyNiAwIDAgMSAzLjU2IDIuODQ1VjE4LjAwNFptLTQuNTAyIDUuNjYyYzAtMS4zNjQtMS4xMzItMi40NzItMi41MjUtMi40NzJzLTIuNTI1IDEuMTA4LTIuNTI1IDIuNDcyYzAgLjg5Ny40OTggMS43MjMgMS4zIDIuMTU4YTIuNTg3IDIuNTg3IDAgMCAwIDIuNDQ1LS4wMDEgMi40NTUgMi40NTUgMCAwIDAgMS4zMDUtMi4xNTdabTguNTQzIDkuMzQ5VjIzLjAwOGgtMi4wMjF2Ny4wMDVoLTEuNzEzbC0xLjY0Ni45ODVhNi42OTIgNi42OTIgMCAwIDAtMy43NTUtMi44OTQgNS40MiA1LjQyIDAgMCAxLTQuMzM2IDAgNi41ODEgNi41ODEgMCAwIDAtNC42OCA1LjkxMmg2LjAyOXYyLjAwMWgtOC4wODJjLS41NTggMC0xLjAxLS40NDgtMS4wMS0xdi0xMi4wMUgxMi4wMnYxNC4zMWMwIC45MjMuNjE4IDEuNzAyIDEuMzUgMS43MDJoMTkuODYzdjIuMDAySDEzLjM3MWMtMS44NTkgMC0zLjM3MS0xLjY2Mi0zLjM3MS0zLjcwM1YxNS43MDNDMTAgMTMuNjYgMTEuNTEyIDEyIDEzLjM3IDEyaDMzLjY2NWMxLjg1OCAwIDMuMzcgMS42NjEgMy4zNyAzLjcwM3YxNy4zMTJoLTIuMDE5Wm0tNS4wOCAxMy45NzkgNS42MjYtNS41NzQtMS40MjktMS40MTUtNC45MTIgNC44NjYtMi4xMTUtMi4wOTUtMS40MjkgMS40MTUgMi44MyAyLjgwM2ExLjAxNCAxLjAxNCAwIDAgMCAxLjQyOCAwWm0yLjAxMS0xMS4wMzFhNy41NzggNy41NzggMCAwIDEgNS44MzMgNC4wNTdjLjY5IDEuMzQuOTU3IDIuODQzLjc3MyA0LjM0NGE3LjQ4MyA3LjQ4MyAwIDAgMS0xLjc2NSAzLjk5NyA3LjY1NCA3LjY1NCAwIDAgMS0yLjUyNiAxLjkxOCA3LjU1OSA3LjU1OSAwIDAgMS00LjE0My42NjUgNy41ODIgNy41ODIgMCAwIDEtMy43OC0xLjU2NyA3LjQ4NCA3LjQ4NCAwIDAgMS0yLjgyNS02LjgzNCA3LjU1IDcuNTUgMCAwIDEgNC4wNjQtNS44MDYgNy41NDYgNy41NDYgMCAwIDEgNC4zNy0uNzc0Wm0zLjE4MSAxNi4xMjRhOS42OTUgOS42OTUgMCAwIDAgMy4xOTYtMi40MjYgOS40NzggOS40NzggMCAwIDAgMi4yMzUtNS4wNTYgOS40NTcgOS40NTcgMCAwIDAtLjk4LTUuNDk1IDkuNTk0IDkuNTk0IDAgMCAwLTcuMzg3LTUuMTMzIDkuNTcgOS41NyAwIDAgMC01LjU0Mi45ODMgOS41NDggOS41NDggMCAwIDAtNS4xNDIgNy4zNDFjLS40MDYgMy4zMjkuOTMgNi41NiAzLjU3NCA4LjY0M0E5LjYwNiA5LjYwNiAwIDAgMCA0NC40MSA1M2MxLjQxMyAwIDIuODA3LS4zMSA0LjA4OC0uOTEzWk0yMS4xMTEgMzMuMDE1aDMuMDN2LTIuMDAyaC0zLjAzdjIuMDAyWm0tNy4wNyAwaDYuMDZ2LTIuMDAyaC02LjA2djIuMDAyWm0wLTUuMDA0aDkuMDlWMjYuMDFoLTkuMDl2Mi4wMDFaIi8+PC9nPjwvc3ZnPjwvZz48L3N2Zz4=;direction=east;" parent="1" vertex="1">
          <mxGeometry x="1876.7458430484426" y="-1085.7541569515574" width="109.00831390311475" height="109.00831390311475" as="geometry" />
        </mxCell>
        <mxCell id="a8f69557-bcd8-42c7-9245-11f20696b5b5" value="" style="shape=image;imageAspect=0;aspect=fixed;image=data:image/svg+xml,PHN2ZyB4bWxucz0iaHR0cDovL3d3dy53My5vcmcvMjAwMC9zdmciIHdpZHRoPSI3OCIgaGVpZ2h0PSI3OCIgc3R5bGU9ImZpbGw6IG51bGw7Ij48Y2lyY2xlIGN4PSIzOSIgY3k9IjM5IiByPSIzOSIgc3R5bGU9ImZpbGw6IHJnYmEoMCwgMCwgMCwgMCk7Ii8+PGcgdHJhbnNmb3JtPSJ0cmFuc2xhdGUoNyw3KSI+PHN2ZyB4bWxucz0iaHR0cDovL3d3dy53My5vcmcvMjAwMC9zdmciIHdpZHRoPSI2NCIgaGVpZ2h0PSI2NCIgdmlld0JveD0iMCAwIDY0IDY0Ij48ZGVmcz48bGluZWFyR3JhZGllbnQgaWQ9IkFQSS1HYXRld2F5X3N2Z19fYSIgeDE9IjAlIiB4Mj0iMTAwJSIgeTE9IjEwMCUiIHkyPSIwJSI+PHN0b3Agb2Zmc2V0PSIwJSIgc3RvcC1jb2xvcj0iI0IwMDg0RCIvPjxzdG9wIG9mZnNldD0iMTAwJSIgc3RvcC1jb2xvcj0iI0ZGNEY4QiIvPjwvbGluZWFyR3JhZGllbnQ+PC9kZWZzPjxnIGZpbGw9Im5vbmUiIGZpbGwtcnVsZT0iZXZlbm9kZCI+PGcgZmlsbD0idXJsKCNBUEktR2F0ZXdheV9zdmdfX2EpIj48cGF0aCBkPSJNMCAwaDY0djY0SDB6Ii8+PC9nPjxnIGZpbGw9IiNGRkYiPjxwYXRoIGQ9Ik0yOCA0NGgzdi0yaC0zdjJabTUgMGgzdi0yaC0zdjJabS01LTIyaDN2LTJoLTN2MlptNSAwaDN2LTJoLTN2MlptLTExLTkuMjYtMTAgNS44MzR2MjcuODA4bDEwIDVWMTIuNzQxWk0yNCAyMGgydjJoLTJ2MjBoMnYyaC0ydjlhMS4wMDEgMS4wMDEgMCAwIDEtMS40NDcuODk1bC0xMi02QTEuMDAxIDEuMDAxIDAgMCAxIDEwIDQ3VjE4YTEgMSAwIDAgMSAuNDk2LS44NjRsMTItN0ExLjAwMiAxLjAwMiAwIDAgMSAyNCAxMXY5Wm0yOC0xLjQyNkw0MiAxMi43NHYzOC42NDFsMTAtNVYxOC41NzRaTTU0IDE4djI5YzAgLjM3OS0uMjE0LjcyNS0uNTUzLjg5NWwtMTIgNmExLjAwNSAxLjAwNSAwIDAgMS0uOTcyLS4wNDRBMS4wMDEgMS4wMDEgMCAwIDEgNDAgNTN2LTloLTJ2LTJoMlYyMmgtMnYtMmgydi05YS45OTguOTk4IDAgMCAxIDEuNTA0LS44NjRsMTIgN0ExIDEgMCAwIDEgNTQgMThabS0xOS4wNjEgOS4zNDItMS44NzgtLjY4NC00IDExIDEuODc4LjY4NCA0LTExWm00Ljc2OCA1LjM2NWEuOTk5Ljk5OSAwIDAgMCAwLTEuNDE0bC0zLTMtMS40MTQgMS40MTRMMzcuNTg2IDMybC0yLjI5MyAyLjI5MyAxLjQxNCAxLjQxNCAzLTNabS0xMi40MTQgMy0zLTNhLjk5OS45OTkgMCAwIDEgMC0xLjQxNGwzLTMgMS40MTQgMS40MTRMMjYuNDE0IDMybDIuMjkzIDIuMjkzLTEuNDE0IDEuNDE0WiIvPjwvZz48L2c+PC9zdmc+PC9nPjwvc3ZnPg==;direction=east;" parent="1" vertex="1">
          <mxGeometry x="1314.2458430484426" y="-523.2541569515574" width="109.00831390311475" height="109.00831390311475" as="geometry" />
        </mxCell>
        <mxCell id="fea57c93-41ac-4abd-b08b-7932b780006c" value="" style="shape=image;imageAspect=0;aspect=fixed;image=data:image/svg+xml,PHN2ZyB4bWxucz0iaHR0cDovL3d3dy53My5vcmcvMjAwMC9zdmciIHdpZHRoPSI3OCIgaGVpZ2h0PSI3OCIgc3R5bGU9ImZpbGw6IG51bGw7Ij48Y2lyY2xlIGN4PSIzOSIgY3k9IjM5IiByPSIzOSIgc3R5bGU9ImZpbGw6IHJnYmEoMCwgMCwgMCwgMCk7Ii8+PGcgdHJhbnNmb3JtPSJ0cmFuc2xhdGUoNyw3KSI+PHN2ZyB4bWxucz0iaHR0cDovL3d3dy53My5vcmcvMjAwMC9zdmciIHdpZHRoPSI2NCIgaGVpZ2h0PSI2NCIgdmlld0JveD0iMCAwIDY0IDY0Ij48ZGVmcz48bGluZWFyR3JhZGllbnQgaWQ9IkxhbWJkYV9zdmdfX2EiIHgxPSIwJSIgeDI9IjEwMCUiIHkxPSIxMDAlIiB5Mj0iMCUiPjxzdG9wIG9mZnNldD0iMCUiIHN0b3AtY29sb3I9IiNDODUxMUIiLz48c3RvcCBvZmZzZXQ9IjEwMCUiIHN0b3AtY29sb3I9IiNGOTAiLz48L2xpbmVhckdyYWRpZW50PjwvZGVmcz48ZyBmaWxsPSJub25lIiBmaWxsLXJ1bGU9ImV2ZW5vZGQiPjxnIGZpbGw9InVybCgjTGFtYmRhX3N2Z19fYSkiPjxwYXRoIGQ9Ik0wIDBoNjR2NjRIMHoiLz48L2c+PHBhdGggZmlsbD0iI0ZGRiIgZD0iTTIyLjY4IDUyaC05LjEwNmwxMC4yNjQtMjEuNTkgNC41NjIgOS40NTFMMjIuNjggNTJabTIuMDQ3LTI0LjMzM2EuOTk0Ljk5NCAwIDAgMC0uODk2LS41NjRoLS4wMDNhLjk5NC45OTQgMCAwIDAtLjg5Ni41NjlMMTEuMDk3IDUyLjU2OWMtLjE0Ny4zMS0uMTI2LjY3NC4wNTcuOTY1LjE4MS4yOS41LjQ2Ni44NDIuNDY2SDIzLjMxYS45OTYuOTk2IDAgMCAwIC45LS41NzJsNi4xOTQtMTMuMTQ0YTEuMDAzIDEuMDAzIDAgMCAwLS4wMDUtLjg2NGwtNS42NzItMTEuNzUzWk01MS4wMDggNTJoLTkuMDIyTDI2Ljk1NSAxOS41NzhhLjk5Ny45OTcgMCAwIDAtLjkwMy0uNTc4aC01LjkyNGwuMDA3LTdoMTEuNjhsMTQuOTYgMzIuNDJjLjE2My4zNTQuNTE2LjU4LjkwNC41OGgzLjMzdjdabS45OTYtOWgtMy42OWwtMTQuOTYtMzIuNDJhLjk5NS45OTUgMCAwIDAtLjkwMy0uNThIMTkuMTRhLjk5OS45OTkgMCAwIDAtLjk5Ni45OTlsLS4wMDggOUEuOTkzLjk5MyAwIDAgMCAxOS4xMzEgMjFoNi4yODZsMTUuMDMgMzIuNDIyYS45OTUuOTk1IDAgMCAwIC45MDMuNTc4aDEwLjY1NGMuNTUgMCAuOTk2LS40NDguOTk2LTF2LTljMC0uNTUyLS40NDUtMS0uOTk2LTFaIi8+PC9nPjwvc3ZnPjwvZz48L3N2Zz4=;direction=east;" parent="1" vertex="1">
          <mxGeometry x="526.7458430484426" y="-523.2541569515574" width="109.00831390311475" height="109.00831390311475" as="geometry" />
        </mxCell>
        <mxCell id="2c092dc6-522c-4380-90bc-cd3e6ffb9e4c" value="" style="shape=image;imageAspect=0;aspect=fixed;image=data:image/svg+xml,PHN2ZyB4bWxucz0iaHR0cDovL3d3dy53My5vcmcvMjAwMC9zdmciIHdpZHRoPSI3OCIgaGVpZ2h0PSI3OCIgc3R5bGU9ImZpbGw6IG51bGw7Ij48Y2lyY2xlIGN4PSIzOSIgY3k9IjM5IiByPSIzOSIgc3R5bGU9ImZpbGw6IHJnYmEoMCwgMCwgMCwgMCk7Ii8+PGcgdHJhbnNmb3JtPSJ0cmFuc2xhdGUoNyw3KSI+PHN2ZyB4bWxucz0iaHR0cDovL3d3dy53My5vcmcvMjAwMC9zdmciIHdpZHRoPSI2NCIgaGVpZ2h0PSI2NCIgdmlld0JveD0iMCAwIDY0IDY0Ij48ZGVmcz48bGluZWFyR3JhZGllbnQgaWQ9IkVsYXN0aWMtTG9hZC1CYWxhbmNpbmdfc3ZnX19hIiB4MT0iMCUiIHgyPSIxMDAlIiB5MT0iMTAwJSIgeTI9IjAlIj48c3RvcCBvZmZzZXQ9IjAlIiBzdG9wLWNvbG9yPSIjNEQyN0E4Ii8+PHN0b3Agb2Zmc2V0PSIxMDAlIiBzdG9wLWNvbG9yPSIjQTE2NkZGIi8+PC9saW5lYXJHcmFkaWVudD48L2RlZnM+PGcgZmlsbD0ibm9uZSIgZmlsbC1ydWxlPSJldmVub2RkIj48ZyBmaWxsPSJ1cmwoI0VsYXN0aWMtTG9hZC1CYWxhbmNpbmdfc3ZnX19hKSI+PHBhdGggZD0iTTAgMGg2NHY2NEgweiIvPjwvZz48cGF0aCBmaWxsPSIjRkZGIiBkPSJNMjMuNSA0MkMxNy43MSA0MiAxMyAzNy4yOSAxMyAzMS41UzE3LjcxIDIxIDIzLjUgMjEgMzQgMjUuNzEgMzQgMzEuNSAyOS4yOSA0MiAyMy41IDQyTTQ4IDQ4YzAgMS42NTQtMS4zNDYgMy0zIDNzLTMtMS4zNDYtMy0zIDEuMzQ2LTMgMy0zIDMgMS4zNDYgMyAzbS0zLTM1YzEuNjU0IDAgMyAxLjM0NiAzIDNzLTEuMzQ2IDMtMyAzLTMtMS4zNDYtMy0zIDEuMzQ2LTMgMy0zbTMgMTZjMS42NTQgMCAzIDEuMzQ2IDMgM3MtMS4zNDYgMy0zIDMtMy0xLjM0Ni0zLTMgMS4zNDYtMyAzLTNtLTEyLjA5OSA0aDcuMjAxQTUuMDA3IDUuMDA3IDAgMCAwIDQ4IDM3YzIuNzU3IDAgNS0yLjI0MyA1LTVzLTIuMjQzLTUtNS01YTUuMDA3IDUuMDA3IDAgMCAwLTQuODk4IDRoLTcuMTI3YTEyLjQ0NiAxMi40NDYgMCAwIDAtLjg3OS00LjE0NGw3LjcwMy02LjM4OUE0Ljk0IDQuOTQgMCAwIDAgNDUgMjFjMi43NTcgMCA1LTIuMjQzIDUtNXMtMi4yNDMtNS01LTUtNSAyLjI0My01IDVjMCAxLjIyNC40NTkgMi4zMzEgMS4xOTEgMy4yMDFsLTcuMDE5IDUuODIzQzMxLjk3NyAyMS40MiAyOC4wMjEgMTkgMjMuNSAxOSAxNi42MDcgMTkgMTEgMjQuNjA3IDExIDMxLjVTMTYuNjA3IDQ0IDIzLjUgNDRjNC4yNDMgMCA3Ljk5My0yLjEyOSAxMC4yNTQtNS4zNzFsNy40MzcgNi4xN0M0MC40NTkgNDUuNjY5IDQwIDQ2Ljc3NiA0MCA0OGMwIDIuNzU3IDIuMjQzIDUgNSA1czUtMi4yNDMgNS01LTIuMjQzLTUtNS01YTQuOTQgNC45NCAwIDAgMC0yLjIwMS41MzNsLTguMDI5LTYuNjZjLjU3NC0xLjIuOTY2LTIuNSAxLjEzMS0zLjg3MyIvPjwvZz48L3N2Zz48L2c+PC9zdmc+;direction=east;" parent="1" vertex="1">
          <mxGeometry x="2440.117339551003" y="377.6173395510033" width="69.76532089799343" height="69.76532089799343" as="geometry" />
        </mxCell>
        <mxCell id="f1d6fc72-d34d-49e7-8e70-c3ef58abe97a" value="" style="shape=image;imageAspect=0;aspect=fixed;image=data:image/svg+xml,PHN2ZyB4bWxucz0iaHR0cDovL3d3dy53My5vcmcvMjAwMC9zdmciIHdpZHRoPSI4MCIgaGVpZ2h0PSI4MCIgc3R5bGU9ImZpbGw6IG51bGw7Ij48Y2lyY2xlIGN4PSI0MCIgY3k9IjQwIiByPSI0MCIgc3R5bGU9ImZpbGw6IHJnYmEoMCwgMCwgMCwgMCk7Ii8+PGcgdHJhbnNmb3JtPSJ0cmFuc2xhdGUoLTEwLC0xMCkiPjxzdmcgeG1sbnM9Imh0dHA6Ly93d3cudzMub3JnLzIwMDAvc3ZnIiB3aWR0aD0iMTAwIiBoZWlnaHQ9IjEwMCIgZGF0YS1uYW1lPSJMYXllciAxIiB2aWV3Qm94PSIwIDAgMTAwIDEwMCI+PHBhdGggZmlsbD0iIzlkNTEyNSIgZD0iTTg1LjIzIDU4djMuMTlDODUuMjMgNjcgNzguODUgNzMgNzEgNzNIMjljLTcuODUgMC0xNC4yMy02LTE0LjIzLTExLjgxVjU4WiIvPjxwYXRoIGZpbGw9IiNmNTg1MzUiIGQ9Ik00MS44OSAyNi45YTE4IDE4IDAgMCAxIDE2LjQyIDEwLjU2IDkuMTQgOS4xNCAwIDAgMSAxNC4yOSA3LjE4YzcuMS41OSAxMi42MyA3LjQ0IDEyLjYzIDEyLjg4djEuMThjMCA1Ljg1LTYuMzggMTEuNzgtMTQuMjYgMTEuNzhIMjljLTcuODYgMC0xNC4yNC01LjkzLTE0LjI0LTExLjc4di0xLjE3YzAtNC41MSAzLjc5LTEwLjcxIDkuMTItMTIuMjV2LS41MUExNy45NCAxNy45NCAwIDAgMSA0MS44OSAyNi45WiIvPjxwYXRoIGZpbGw9IiNmZmYiIGQ9Ik0zMS44NCA0Ny44MWgyLjc5TDM3LjQzIDYxbDMtMTMuMTZoMi43OWwtNC4xNSAxNi40NWgtMy4zNVpNNDQuOTEgNDcuODFoNS4yMmMzLjE2IDAgNC41NSAyIDQuNTUgNC44cy0xLjczIDQuODctNC44MiA0Ljg3aC0yLjMydjYuODFoLTIuNjNabTIuNjMgNy42OWgxLjg3YzEuNDEgMCAyLjYzLS43NiAyLjYzLTIuODQgMC0xLjc4LS43MS0yLjg2LTIuODItMi44NmgtMS42OFpNNjcgNTguMzh2LjM1YzAgMy0xLjIgNS44OS01LjA4IDUuODktNC4xNiAwLTUuNDUtMi42OC01LjQ1LTguNTZzMS4yOS04LjU2IDUuNDctOC41NmM0LjY4IDAgNSAzLjQ2IDUgNS4xN1Y1M2gtMi42MnYtLjI4YzAtMS41Mi0uNDYtMy4yOC0yLjM1LTMuMjFzLTIuODIgMS4yLTIuODIgNi41MS44NSA2LjYxIDIuODUgNi42MWMyLjE5IDAgMi40NS0yLjQ1IDIuNDUtNHYtLjI4WiIvPjwvc3ZnPjwvZz48L3N2Zz4=;direction=east;" parent="1" vertex="1">
          <mxGeometry x="2800" y="-1268.75" width="100" height="100" as="geometry" />
        </mxCell>
        <mxCell id="6105817c-6039-42e4-86dc-d522a9843032" value="" style="shape=image;imageAspect=0;aspect=fixed;image=data:image/svg+xml,PHN2ZyB4bWxucz0iaHR0cDovL3d3dy53My5vcmcvMjAwMC9zdmciIHdpZHRoPSI3OCIgaGVpZ2h0PSI3OCIgc3R5bGU9ImZpbGw6IG51bGw7Ij48Y2lyY2xlIGN4PSIzOSIgY3k9IjM5IiByPSIzOSIgc3R5bGU9ImZpbGw6IHJnYmEoMCwgMCwgMCwgMCk7Ii8+PGcgdHJhbnNmb3JtPSJ0cmFuc2xhdGUoNyw3KSI+PHN2ZyB4bWxucz0iaHR0cDovL3d3dy53My5vcmcvMjAwMC9zdmciIHdpZHRoPSI2NCIgaGVpZ2h0PSI2NCIgdmlld0JveD0iMCAwIDY0IDY0Ij48ZGVmcz48bGluZWFyR3JhZGllbnQgaWQ9IkVsYXN0aWMtTG9hZC1CYWxhbmNpbmdfc3ZnX19hIiB4MT0iMCUiIHgyPSIxMDAlIiB5MT0iMTAwJSIgeTI9IjAlIj48c3RvcCBvZmZzZXQ9IjAlIiBzdG9wLWNvbG9yPSIjNEQyN0E4Ii8+PHN0b3Agb2Zmc2V0PSIxMDAlIiBzdG9wLWNvbG9yPSIjQTE2NkZGIi8+PC9saW5lYXJHcmFkaWVudD48L2RlZnM+PGcgZmlsbD0ibm9uZSIgZmlsbC1ydWxlPSJldmVub2RkIj48ZyBmaWxsPSJ1cmwoI0VsYXN0aWMtTG9hZC1CYWxhbmNpbmdfc3ZnX19hKSI+PHBhdGggZD0iTTAgMGg2NHY2NEgweiIvPjwvZz48cGF0aCBmaWxsPSIjRkZGIiBkPSJNMjMuNSA0MkMxNy43MSA0MiAxMyAzNy4yOSAxMyAzMS41UzE3LjcxIDIxIDIzLjUgMjEgMzQgMjUuNzEgMzQgMzEuNSAyOS4yOSA0MiAyMy41IDQyTTQ4IDQ4YzAgMS42NTQtMS4zNDYgMy0zIDNzLTMtMS4zNDYtMy0zIDEuMzQ2LTMgMy0zIDMgMS4zNDYgMyAzbS0zLTM1YzEuNjU0IDAgMyAxLjM0NiAzIDNzLTEuMzQ2IDMtMyAzLTMtMS4zNDYtMy0zIDEuMzQ2LTMgMy0zbTMgMTZjMS42NTQgMCAzIDEuMzQ2IDMgM3MtMS4zNDYgMy0zIDMtMy0xLjM0Ni0zLTMgMS4zNDYtMyAzLTNtLTEyLjA5OSA0aDcuMjAxQTUuMDA3IDUuMDA3IDAgMCAwIDQ4IDM3YzIuNzU3IDAgNS0yLjI0MyA1LTVzLTIuMjQzLTUtNS01YTUuMDA3IDUuMDA3IDAgMCAwLTQuODk4IDRoLTcuMTI3YTEyLjQ0NiAxMi40NDYgMCAwIDAtLjg3OS00LjE0NGw3LjcwMy02LjM4OUE0Ljk0IDQuOTQgMCAwIDAgNDUgMjFjMi43NTcgMCA1LTIuMjQzIDUtNXMtMi4yNDMtNS01LTUtNSAyLjI0My01IDVjMCAxLjIyNC40NTkgMi4zMzEgMS4xOTEgMy4yMDFsLTcuMDE5IDUuODIzQzMxLjk3NyAyMS40MiAyOC4wMjEgMTkgMjMuNSAxOSAxNi42MDcgMTkgMTEgMjQuNjA3IDExIDMxLjVTMTYuNjA3IDQ0IDIzLjUgNDRjNC4yNDMgMCA3Ljk5My0yLjEyOSAxMC4yNTQtNS4zNzFsNy40MzcgNi4xN0M0MC40NTkgNDUuNjY5IDQwIDQ2Ljc3NiA0MCA0OGMwIDIuNzU3IDIuMjQzIDUgNSA1czUtMi4yNDMgNS01LTIuMjQzLTUtNS01YTQuOTQgNC45NCAwIDAgMC0yLjIwMS41MzNsLTguMDI5LTYuNjZjLjU3NC0xLjIuOTY2LTIuNSAxLjEzMS0zLjg3MyIvPjwvZz48L3N2Zz48L2c+PC9zdmc+;direction=east;" parent="1" vertex="1">
          <mxGeometry x="77.61733955100328" y="640.1173395510033" width="69.76532089799343" height="69.76532089799343" as="geometry" />
        </mxCell>
        <mxCell id="f9325b6c-d3a8-4514-a036-15557496ab06" value="" style="shape=image;imageAspect=0;aspect=fixed;image=data:image/svg+xml,PHN2ZyB4bWxucz0iaHR0cDovL3d3dy53My5vcmcvMjAwMC9zdmciIHdpZHRoPSI3OCIgaGVpZ2h0PSI3OCIgc3R5bGU9ImZpbGw6IG51bGw7Ij48Y2lyY2xlIGN4PSIzOSIgY3k9IjM5IiByPSIzOSIgc3R5bGU9ImZpbGw6IHJnYmEoMCwgMCwgMCwgMCk7Ii8+PGcgdHJhbnNmb3JtPSJ0cmFuc2xhdGUoNyw3KSI+PHN2ZyB4bWxucz0iaHR0cDovL3d3dy53My5vcmcvMjAwMC9zdmciIHdpZHRoPSI2NCIgaGVpZ2h0PSI2NCIgdmlld0JveD0iMCAwIDY0IDY0Ij48ZGVmcz48bGluZWFyR3JhZGllbnQgaWQ9IkNsb3VkV2F0Y2hfc3ZnX19hIiB4MT0iMCUiIHgyPSIxMDAlIiB5MT0iMTAwJSIgeTI9IjAlIj48c3RvcCBvZmZzZXQ9IjAlIiBzdG9wLWNvbG9yPSIjQjAwODREIi8+PHN0b3Agb2Zmc2V0PSIxMDAlIiBzdG9wLWNvbG9yPSIjRkY0RjhCIi8+PC9saW5lYXJHcmFkaWVudD48L2RlZnM+PGcgZmlsbD0ibm9uZSIgZmlsbC1ydWxlPSJldmVub2RkIj48ZyBmaWxsPSJ1cmwoI0Nsb3VkV2F0Y2hfc3ZnX19hKSI+PHBhdGggZD0iTTAgMGg2NHY2NEgweiIvPjwvZz48cGF0aCBmaWxsPSIjRkZGIiBkPSJNNDIuMTg0IDM5LjM4MWE0LjA5NSA0LjA5NSAwIDAgMC04LjE4OSAwIDQuMDk1IDQuMDk1IDAgMCAwIDguMTg5IDBabTIgMGMwIDMuMzUzLTIuNzM0IDYuMDgxLTYuMDk1IDYuMDgxLTMuMzYgMC02LjA5NC0yLjcyOC02LjA5NC02LjA4IDAtMy4zNTQgMi43MzQtNi4wODIgNi4wOTQtNi4wODIgMy4zNjEgMCA2LjA5NSAyLjcyOCA2LjA5NSA2LjA4MVptNi41NTkgMTAuMjM1LTQuODk3LTQuNGE5Ljk5MiA5Ljk5MiAwIDAgMS0xLjA2MSAxLjE5bDQuODg2IDQuMzk3YS44MDYuODA2IDAgMCAwIDEuMTMxLS4wNTkuODAxLjgwMSAwIDAgMC0uMDU5LTEuMTI4Wm0tMTIuNjU0LTIuNTI0YzQuMjYyIDAgNy43MjktMy40NiA3LjcyOS03LjcxIDAtNC4yNTItMy40NjctNy43MTEtNy43MjktNy43MTEtNC4yNiAwLTcuNzI3IDMuNDU5LTcuNzI3IDcuNzEgMCA0LjI1MSAzLjQ2NyA3LjcxIDcuNzI3IDcuNzFabTEzLjk5MiAxLjA0MmEyLjc5NiAyLjc5NiAwIDAgMSAuMjA3IDMuOTQ2Yy0uNTUzLjYxLTEuMzE3LjkyLTIuMDgzLjkyYTIuNzk3IDIuNzk3IDAgMCAxLTEuODcyLS43MTNsLTUuMTYxLTQuNjQ2YTkuNjY4IDkuNjY4IDAgMCAxLTUuMDgzIDEuNDQ2Yy01LjM2NCAwLTkuNzI3LTQuMzU0LTkuNzI3LTkuNzA2IDAtNS4zNTIgNC4zNjMtOS43MDYgOS43MjctOS43MDYgNS4zNjUgMCA5LjcyOSA0LjM1NCA5LjcyOSA5LjcwNmE5LjYxIDkuNjEgMCAwIDEtLjkyMSA0LjA5NWw1LjE4NCA0LjY1OFpNMTcuNjk3IDIzLjUzOGMwIC40MDEuMDIzLjguMDcgMS4xODVhLjk5Ny45OTcgMCAwIDEtLjgwNiAxLjEwMUMxNS4wODQgMjYuMzA4IDEyIDI3Ljc3MiAxMiAzMi4xNTdjMCAzLjMyMyAxLjgzNiA1LjE1NyAzLjM3NyA2LjExLjY3Mi40MjMgMS4yNjMuNjM4IDEuNzYxLjY0M2g4Ljk4OXYxLjk5NmgtOWMtLjg4NC0uMDEtMS44MjctLjMyOS0yLjgxLS45NDdDMTIuNzA4IDM4Ljk2NCAxMCAzNi42MiAxMCAzMi4xNTdjMC01LjI3IDMuNTI2LTcuMjkzIDUuNzEtOC4wNGExMy45NjUgMTMuOTY1IDAgMCAxLS4wMTMtLjU3OWMwLTQuMzc4IDIuOTc2LTguOTE2IDYuOTI0LTEwLjU2IDQuNjExLTEuOTI3IDkuNDk4LS45NzEgMTMuMDY2IDIuNTU2IDEuMDQ3IDEuMDMzIDEuOTE3IDIuMjc0IDIuNTk4IDMuNzAyYTUuMjg0IDUuMjg0IDAgMCAxIDMuMTc0LTEuMDYxYzIuNDE1IDAgNS4xMjggMS43OTMgNS42NjMgNS43MTVDNTAuNTggMjQuNzIyIDU0IDI3LjI3OCA1NCAzMi4yMTdjMCAyLjg5LTEuMTM2IDUuMjQtMy4yODcgNi43OTJsLTEuMTcyLTEuNjE2QzUxLjE3MyAzNi4yMTQgNTIgMzQuNDczIDUyIDMyLjIxN2MwLTQuOTc4LTQuMTg5LTYuMjE3LTUuOTktNi41MTlhLjk5Ni45OTYgMCAwIDEtLjgyNC0xLjEyN2MtLjI1NS0zLjA0LTIuMDQ1LTQuNDAxLTMuNzI3LTQuNDAxLTEuMDU3IDAtMi4wNS41MTYtMi43MjUgMS40MTZhLjk5OS45OTkgMCAwIDEtMS43NDEtLjI2Yy0uNjM0LTEuNzUyLTEuNTQ3LTMuMjIzLTIuNzEyLTQuMzc1LTEuNDMtMS40MTEtNS4zNDgtNC40NDQtMTAuODktMi4xMzItMy4xOTMgMS4zMy01LjY5NCA1LjE2LTUuNjk0IDguNzJaIi8+PC9nPjwvc3ZnPjwvZz48L3N2Zz4=;direction=east;" parent="1" vertex="1">
          <mxGeometry x="2468.896674438754" y="-1262.3533255612458" width="87.2066511224918" height="87.2066511224918" as="geometry" />
        </mxCell>
        <mxCell id="933fd4fd-8185-445a-a67d-9064323f940a" value="" style="shape=image;imageAspect=0;aspect=fixed;image=data:image/svg+xml,PHN2ZyB4bWxucz0iaHR0cDovL3d3dy53My5vcmcvMjAwMC9zdmciIHdpZHRoPSI3OCIgaGVpZ2h0PSI3OCIgc3R5bGU9ImZpbGw6IG51bGw7Ij48Y2lyY2xlIGN4PSIzOSIgY3k9IjM5IiByPSIzOSIgc3R5bGU9ImZpbGw6IHJnYmEoMCwgMCwgMCwgMCk7Ii8+PGcgdHJhbnNmb3JtPSJ0cmFuc2xhdGUoNyw3KSI+PHN2ZyB4bWxucz0iaHR0cDovL3d3dy53My5vcmcvMjAwMC9zdmciIHdpZHRoPSI2NCIgaGVpZ2h0PSI2NCIgdmlld0JveD0iMCAwIDY0IDY0Ij48ZGVmcz48bGluZWFyR3JhZGllbnQgaWQ9IklkZW50aXR5LWFuZC1BY2Nlc3MtTWFuYWdlbWVudF9zdmdfX2EiIHgxPSIwJSIgeDI9IjEwMCUiIHkxPSIxMDAlIiB5Mj0iMCUiPjxzdG9wIG9mZnNldD0iMCUiIHN0b3AtY29sb3I9IiNCRDA4MTYiLz48c3RvcCBvZmZzZXQ9IjEwMCUiIHN0b3AtY29sb3I9IiNGRjUyNTIiLz48L2xpbmVhckdyYWRpZW50PjwvZGVmcz48ZyBmaWxsPSJub25lIiBmaWxsLXJ1bGU9ImV2ZW5vZGQiPjxnIGZpbGw9InVybCgjSWRlbnRpdHktYW5kLUFjY2Vzcy1NYW5hZ2VtZW50X3N2Z19fYSkiPjxwYXRoIGQ9Ik0wIDBoNjR2NjRIMHoiLz48L2c+PHBhdGggZmlsbD0iI0ZGRiIgZD0iTTEyIDQ3aDQwVjE4SDEydjI5Wm00Mi0zMHYzMWExIDEgMCAwIDEtMSAxSDExYTEgMSAwIDAgMS0xLTFWMTdhMSAxIDAgMCAxIDEtMWg0MmExIDEgMCAwIDEgMSAxWk0zNSAzOWgxMnYtMkgzNXYyWm0xMC00aDR2LTJoLTR2MlptLTEwIDBoNnYtMmgtNnYyWm0tMTIuNSAyLjVhLjUuNSAwIDEgMCAxLjAwMi0uMDAyLjUuNSAwIDAgMC0xLjAwMi4wMDJabTMgMGEyLjUwMSAyLjUwMSAwIDAgMS0xLjUgMi4yODhWNDJoLTJ2LTIuMjEyYTIuNTAxIDIuNTAxIDAgMCAxLTEuNS0yLjI4OGMwLTEuMzc4IDEuMTIxLTIuNSAyLjUtMi41czIuNSAxLjEyMiAyLjUgMi41Wk0xNiA0Mi45OTUgMjkuOTk1IDQzbC4wMDEtMkgyN3YtMmgyLjk5N2wuMDAxLTJIMjd2LTJoMi45OTlMMzAgMzMuMDA1IDE2LjAwNSAzMyAxNiA0Mi45OTVabTItMTEuOTk0IDEwLjAwMS4wMDMuMDAxLTUuMDA0YzAtMS4wMjQtLjgwMi0xLjcyNy0xLjI4LTIuMDU1LS44NzUtLjYtMi41NDgtLjk0NS0zLjcyLS45NDVIMjNjLTIuMTI3IDAtNC45OTcgMS4yMzItNC45OTggM0wxOCAzMS4wMDFabS0zLjcwNyAxMy43YTEgMSAwIDAgMS0uMjkzLS43MDdMMTQuMDA1IDMyYTEgMSAwIDAgMSAxLTFIMTZsLjAwMi01Yy4wMDEtMy4wODkgMy44NzQtNSA2Ljk5OC01aC4wMDJjMS41NjUgMCAzLjY1MS40NzMgNC44NTIgMS4yOTUgMS4zODUuOTUxIDIuMTQ5IDIuMjY3IDIuMTQ4IDMuNzA1bC0uMDAxIDUuMDA1Ljk5OS4wMDFhMSAxIDAgMCAxIDEgMUwzMS45OTUgNDRhMSAxIDAgMCAxLTEgMUwxNSA0NC45OTRhLjk5Ni45OTYgMCAwIDEtLjcwNy0uMjkzWk00NyAzMGgydi0yaC0ydjJabS0xMiAwaDl2LTJoLTl2MloiLz48L2c+PC9zdmc+PC9nPjwvc3ZnPg==;direction=east;" parent="1" vertex="1">
          <mxGeometry x="2618.896674438754" y="-1262.3533255612458" width="87.2066511224918" height="87.2066511224918" as="geometry" />
        </mxCell>
        <mxCell id="6867b768-7172-4344-8b4e-da44343c50bf" value="NAT Instance" style="text;labelPosition=right;verticalLabelPosition=bottom;fontColor=#ffffff;fontSize=25;rotation=0;spacingLeft=10;html=1;" parent="1" vertex="1">
          <mxGeometry x="-712.5" y="-75" as="geometry" />
        </mxCell>
        <mxCell id="d890d618-532c-4fae-bec5-d90c850d78ef" value="LLM Workers" style="text;labelPosition=right;verticalLabelPosition=bottom;fontColor=#ffffff;fontSize=25;rotation=0;spacingLeft=10;html=1;" parent="1" vertex="1">
          <mxGeometry x="-206.25" y="825" as="geometry" />
        </mxCell>
        <mxCell id="94756cd3-e587-453d-9c56-23f282d06fbe" value="NAT Instance" style="text;labelPosition=right;verticalLabelPosition=bottom;fontColor=#ffffff;fontSize=25;rotation=0;spacingLeft=10;html=1;" parent="1" vertex="1">
          <mxGeometry x="1031.25" y="562.5" as="geometry" />
        </mxCell>
        <mxCell id="af91fea5-407c-4991-9612-7a887ec3c486" value="LLM Workers" style="text;labelPosition=right;verticalLabelPosition=bottom;fontColor=#ffffff;fontSize=25;rotation=0;spacingLeft=10;html=1;" parent="1" vertex="1">
          <mxGeometry x="2156.25" y="581.25" as="geometry" />
        </mxCell>
      </root>
    </mxGraphModel>
  </diagram>
</mxfile>
